<?xml version="1.0" encoding="utf-8" standalone="no"?>
<!DOCTYPE svg PUBLIC "-//W3C//DTD SVG 1.1//EN"
  "http://www.w3.org/Graphics/SVG/1.1/DTD/svg11.dtd">
<svg height="345.6pt" version="1.1" viewBox="0 0 460.8 345.6" width="460.8pt" xmlns="http://www.w3.org/2000/svg" xmlns:xlink="http://www.w3.org/1999/xlink">
 <metadata>
  <rdf:RDF xmlns:cc="http://creativecommons.org/ns#" xmlns:dc="http://purl.org/dc/elements/1.1/" xmlns:rdf="http://www.w3.org/1999/02/22-rdf-syntax-ns#">
   <cc:Work>
    <dc:type rdf:resource="http://purl.org/dc/dcmitype/StillImage"/>
    <dc:date>2021-07-20T17:51:26.020696</dc:date>
    <dc:format>image/svg+xml</dc:format>
    <dc:creator>
     <cc:Agent>
      <dc:title>Matplotlib v3.4.1, https://matplotlib.org/</dc:title>
     </cc:Agent>
    </dc:creator>
   </cc:Work>
  </rdf:RDF>
 </metadata>
 <defs>
  <style type="text/css">*{stroke-linecap:butt;stroke-linejoin:round;}</style>
 </defs>
 <g id="figure_1">
  <g id="patch_1">
   <path d="M 0 345.6 
L 460.8 345.6 
L 460.8 0 
L 0 0 
z
" style="fill:#ffffff;"/>
  </g>
  <g id="axes_1">
   <g id="patch_2">
    <path d="M 57.6 307.584 
L 414.72 307.584 
L 414.72 41.472 
L 57.6 41.472 
z
" style="fill:#ffffff;"/>
   </g>
   <g id="matplotlib.axis_1">
    <g id="xtick_1">
     <g id="line2d_1">
      <defs>
       <path d="M 0 0 
L 0 3.5 
" id="m9beb83da32" style="stroke:#000000;stroke-width:0.8;"/>
      </defs>
      <g>
       <use style="stroke:#000000;stroke-width:0.8;" x="73.479842" xlink:href="#m9beb83da32" y="307.584"/>
      </g>
     </g>
     <g id="text_1">
      <!-- 0 -->
      <g transform="translate(70.979842 321.459)scale(0.1 -0.1)">
       <defs>
        <path d="M 225 2537 
Q 250 3200 412 3587 
Q 575 3975 875 4225 
Q 1175 4475 1612 4475 
Q 2050 4475 2375 4112 
Q 2700 3750 2800 3200 
Q 2900 2650 2862 1937 
Q 2825 1225 2612 775 
Q 2400 325 1975 150 
Q 1550 -25 1125 187 
Q 700 400 525 750 
Q 350 1100 275 1487 
Q 200 1875 225 2537 
z
M 750 2687 
Q 675 2000 800 1462 
Q 925 925 1212 700 
Q 1500 475 1800 612 
Q 2100 750 2237 1162 
Q 2375 1575 2375 2062 
Q 2375 2550 2337 2950 
Q 2300 3350 2112 3675 
Q 1925 4000 1612 4012 
Q 1300 4025 1062 3700 
Q 825 3375 750 2687 
z
" id="SimHei-30" transform="scale(0.015625)"/>
       </defs>
       <use xlink:href="#SimHei-30"/>
      </g>
     </g>
    </g>
    <g id="xtick_2">
     <g id="line2d_2">
      <g>
       <use style="stroke:#000000;stroke-width:0.8;" x="144.056917" xlink:href="#m9beb83da32" y="307.584"/>
      </g>
     </g>
     <g id="text_2">
      <!-- 200 -->
      <g transform="translate(136.556917 321.459)scale(0.1 -0.1)">
       <defs>
        <path d="M 300 250 
Q 325 625 650 925 
Q 975 1225 1475 1862 
Q 1975 2500 2125 2850 
Q 2275 3200 2237 3450 
Q 2200 3700 2000 3862 
Q 1800 4025 1537 4000 
Q 1275 3975 1037 3800 
Q 800 3625 675 3275 
L 200 3350 
Q 400 3925 712 4187 
Q 1025 4450 1450 4475 
Q 1700 4500 1900 4462 
Q 2100 4425 2312 4287 
Q 2525 4150 2662 3875 
Q 2800 3600 2762 3212 
Q 2725 2825 2375 2287 
Q 2025 1750 1025 600 
L 2825 600 
L 2825 150 
L 300 150 
L 300 250 
z
" id="SimHei-32" transform="scale(0.015625)"/>
       </defs>
       <use xlink:href="#SimHei-32"/>
       <use x="50" xlink:href="#SimHei-30"/>
       <use x="100" xlink:href="#SimHei-30"/>
      </g>
     </g>
    </g>
    <g id="xtick_3">
     <g id="line2d_3">
      <g>
       <use style="stroke:#000000;stroke-width:0.8;" x="214.633992" xlink:href="#m9beb83da32" y="307.584"/>
      </g>
     </g>
     <g id="text_3">
      <!-- 400 -->
      <g transform="translate(207.133992 321.459)scale(0.1 -0.1)">
       <defs>
        <path d="M 2000 1100 
L 75 1100 
L 75 1525 
L 2100 4450 
L 2475 4450 
L 2475 1525 
L 3075 1525 
L 3075 1100 
L 2475 1100 
L 2475 150 
L 2000 150 
L 2000 1100 
z
M 2000 1525 
L 2000 3500 
L 600 1525 
L 2000 1525 
z
" id="SimHei-34" transform="scale(0.015625)"/>
       </defs>
       <use xlink:href="#SimHei-34"/>
       <use x="50" xlink:href="#SimHei-30"/>
       <use x="100" xlink:href="#SimHei-30"/>
      </g>
     </g>
    </g>
    <g id="xtick_4">
     <g id="line2d_4">
      <g>
       <use style="stroke:#000000;stroke-width:0.8;" x="285.211067" xlink:href="#m9beb83da32" y="307.584"/>
      </g>
     </g>
     <g id="text_4">
      <!-- 600 -->
      <g transform="translate(277.711067 321.459)scale(0.1 -0.1)">
       <defs>
        <path d="M 250 1612 
Q 275 1975 387 2225 
Q 500 2475 725 2850 
L 1750 4450 
L 2325 4450 
L 1275 2800 
Q 1950 2975 2350 2750 
Q 2750 2525 2887 2237 
Q 3025 1950 3037 1612 
Q 3050 1275 2937 950 
Q 2825 625 2537 362 
Q 2250 100 1737 75 
Q 1225 50 862 262 
Q 500 475 362 862 
Q 225 1250 250 1612 
z
M 1025 787 
Q 1250 550 1625 525 
Q 2000 500 2250 775 
Q 2500 1050 2500 1575 
Q 2500 2100 2187 2300 
Q 1875 2500 1487 2450 
Q 1100 2400 925 2075 
Q 750 1750 775 1387 
Q 800 1025 1025 787 
z
" id="SimHei-36" transform="scale(0.015625)"/>
       </defs>
       <use xlink:href="#SimHei-36"/>
       <use x="50" xlink:href="#SimHei-30"/>
       <use x="100" xlink:href="#SimHei-30"/>
      </g>
     </g>
    </g>
    <g id="xtick_5">
     <g id="line2d_5">
      <g>
       <use style="stroke:#000000;stroke-width:0.8;" x="355.788142" xlink:href="#m9beb83da32" y="307.584"/>
      </g>
     </g>
     <g id="text_5">
      <!-- 800 -->
      <g transform="translate(348.288142 321.459)scale(0.1 -0.1)">
       <defs>
        <path d="M 175 1375 
Q 175 1675 325 1962 
Q 475 2250 825 2425 
Q 525 2600 425 2812 
Q 325 3025 312 3300 
Q 300 3575 387 3775 
Q 475 3975 650 4150 
Q 825 4325 1037 4387 
Q 1250 4450 1500 4450 
Q 1750 4450 1950 4400 
Q 2150 4350 2375 4187 
Q 2600 4025 2700 3725 
Q 2800 3425 2687 3025 
Q 2575 2625 2100 2400 
Q 2525 2275 2700 2012 
Q 2875 1750 2875 1375 
Q 2875 1000 2762 775 
Q 2650 550 2512 400 
Q 2375 250 2137 162 
Q 1900 75 1537 75 
Q 1175 75 912 162 
Q 650 250 475 425 
Q 300 600 237 837 
Q 175 1075 175 1375 
z
M 687 1400 
Q 675 1100 787 875 
Q 900 650 1200 587 
Q 1500 525 1825 600 
Q 2150 675 2275 950 
Q 2400 1225 2362 1500 
Q 2325 1775 2050 1962 
Q 1775 2150 1450 2125 
Q 1125 2100 912 1900 
Q 700 1700 687 1400 
z
M 775 3350 
Q 775 3100 950 2875 
Q 1125 2650 1500 2650 
Q 1875 2650 2062 2875 
Q 2250 3100 2237 3412 
Q 2225 3725 2012 3875 
Q 1800 4025 1437 4000 
Q 1075 3975 925 3787 
Q 775 3600 775 3350 
z
" id="SimHei-38" transform="scale(0.015625)"/>
       </defs>
       <use xlink:href="#SimHei-38"/>
       <use x="50" xlink:href="#SimHei-30"/>
       <use x="100" xlink:href="#SimHei-30"/>
      </g>
     </g>
    </g>
    <g id="text_6">
     <!-- episodes -->
     <g transform="translate(216.16 333.584)scale(0.1 -0.1)">
      <defs>
       <path d="M 2850 1075 
Q 2800 625 2450 350 
Q 2100 75 1625 75 
Q 1025 75 637 462 
Q 250 850 250 1525 
Q 250 2200 637 2587 
Q 1025 2975 1625 2975 
Q 2150 2975 2487 2637 
Q 2825 2300 2825 1525 
L 800 1525 
Q 800 975 1037 750 
Q 1275 525 1625 525 
Q 1900 525 2075 662 
Q 2250 800 2300 1075 
L 2850 1075 
z
M 2250 1925 
Q 2200 2275 2025 2412 
Q 1850 2550 1575 2550 
Q 1325 2550 1125 2412 
Q 925 2275 825 1925 
L 2250 1925 
z
" id="SimHei-65" transform="scale(0.015625)"/>
       <path d="M 2825 1525 
Q 2825 800 2475 425 
Q 2125 50 1625 50 
Q 1350 50 1150 162 
Q 950 275 800 500 
L 800 -800 
L 300 -800 
L 300 2925 
L 800 2925 
L 800 2550 
Q 950 2775 1150 2875 
Q 1350 2975 1625 2975 
Q 2125 2975 2475 2612 
Q 2825 2250 2825 1525 
z
M 2275 1525 
Q 2275 2000 2087 2262 
Q 1900 2525 1525 2525 
Q 1225 2525 1012 2262 
Q 800 2000 800 1525 
Q 800 1050 1012 775 
Q 1225 500 1525 500 
Q 1900 500 2087 775 
Q 2275 1050 2275 1525 
z
" id="SimHei-70" transform="scale(0.015625)"/>
       <path d="M 1800 3725 
L 1300 3725 
L 1300 4375 
L 1800 4375 
L 1800 3725 
z
M 1800 125 
L 1300 125 
L 1300 2925 
L 1800 2925 
L 1800 125 
z
" id="SimHei-69" transform="scale(0.015625)"/>
       <path d="M 2750 900 
Q 2750 500 2437 287 
Q 2125 75 1650 75 
Q 1050 75 725 312 
Q 400 550 400 1000 
L 900 1000 
Q 900 700 1112 600 
Q 1325 500 1625 500 
Q 1925 500 2075 612 
Q 2225 725 2225 900 
Q 2225 1025 2100 1150 
Q 1975 1275 1475 1350 
Q 900 1425 687 1637 
Q 475 1850 475 2200 
Q 475 2500 762 2737 
Q 1050 2975 1600 2975 
Q 2100 2975 2387 2750 
Q 2675 2525 2675 2150 
L 2175 2150 
Q 2175 2375 2012 2462 
Q 1850 2550 1600 2550 
Q 1275 2550 1137 2437 
Q 1000 2325 1000 2175 
Q 1000 2000 1125 1900 
Q 1250 1800 1650 1750 
Q 2300 1650 2525 1437 
Q 2750 1225 2750 900 
z
" id="SimHei-73" transform="scale(0.015625)"/>
       <path d="M 2925 1525 
Q 2925 875 2525 475 
Q 2125 75 1575 75 
Q 1025 75 625 475 
Q 225 875 225 1525 
Q 225 2175 625 2575 
Q 1025 2975 1575 2975 
Q 2125 2975 2525 2575 
Q 2925 2175 2925 1525 
z
M 2375 1525 
Q 2375 2025 2125 2275 
Q 1875 2525 1575 2525 
Q 1275 2525 1025 2275 
Q 775 2025 775 1525 
Q 775 1025 1025 775 
Q 1275 525 1575 525 
Q 1875 525 2125 775 
Q 2375 1025 2375 1525 
z
" id="SimHei-6f" transform="scale(0.015625)"/>
       <path d="M 2750 125 
L 2250 125 
L 2250 500 
Q 2100 275 1900 175 
Q 1700 75 1425 75 
Q 925 75 575 437 
Q 225 800 225 1525 
Q 225 2250 575 2625 
Q 925 3000 1425 3000 
Q 1700 3000 1900 2887 
Q 2100 2775 2250 2550 
L 2250 4400 
L 2750 4400 
L 2750 125 
z
M 2250 1525 
Q 2250 2000 2037 2275 
Q 1825 2550 1525 2550 
Q 1150 2550 962 2275 
Q 775 2000 775 1525 
Q 775 1050 962 787 
Q 1150 525 1525 525 
Q 1825 525 2037 787 
Q 2250 1050 2250 1525 
z
" id="SimHei-64" transform="scale(0.015625)"/>
      </defs>
      <use xlink:href="#SimHei-65"/>
      <use x="50" xlink:href="#SimHei-70"/>
      <use x="100" xlink:href="#SimHei-69"/>
      <use x="150" xlink:href="#SimHei-73"/>
      <use x="200" xlink:href="#SimHei-6f"/>
      <use x="250" xlink:href="#SimHei-64"/>
      <use x="300" xlink:href="#SimHei-65"/>
      <use x="350" xlink:href="#SimHei-73"/>
     </g>
    </g>
   </g>
   <g id="matplotlib.axis_2">
    <g id="ytick_1">
     <g id="line2d_6">
      <defs>
       <path d="M 0 0 
L -3.5 0 
" id="m33f9ce7203" style="stroke:#000000;stroke-width:0.8;"/>
      </defs>
      <g>
       <use style="stroke:#000000;stroke-width:0.8;" x="57.6" xlink:href="#m33f9ce7203" y="305.568"/>
      </g>
     </g>
     <g id="text_7">
      <!-- 0 -->
      <g transform="translate(45.6 309.0055)scale(0.1 -0.1)">
       <use xlink:href="#SimHei-30"/>
      </g>
     </g>
    </g>
    <g id="ytick_2">
     <g id="line2d_7">
      <g>
       <use style="stroke:#000000;stroke-width:0.8;" x="57.6" xlink:href="#m33f9ce7203" y="274.068"/>
      </g>
     </g>
     <g id="text_8">
      <!-- 25 -->
      <g transform="translate(40.6 277.5055)scale(0.1 -0.1)">
       <defs>
        <path d="M 550 1325 
Q 725 650 1150 575 
Q 1575 500 1837 662 
Q 2100 825 2212 1087 
Q 2325 1350 2312 1675 
Q 2300 2000 2137 2225 
Q 1975 2450 1725 2525 
Q 1475 2600 1162 2525 
Q 850 2450 650 2175 
L 225 2225 
Q 275 2375 700 4375 
L 2675 4375 
L 2675 3925 
L 1075 3925 
Q 950 3250 825 2850 
Q 1200 3025 1525 3012 
Q 1850 3000 2150 2862 
Q 2450 2725 2587 2487 
Q 2725 2250 2787 2012 
Q 2850 1775 2837 1500 
Q 2825 1225 2725 937 
Q 2625 650 2425 462 
Q 2225 275 1937 162 
Q 1650 50 1275 75 
Q 900 100 562 350 
Q 225 600 100 1200 
L 550 1325 
z
" id="SimHei-35" transform="scale(0.015625)"/>
       </defs>
       <use xlink:href="#SimHei-32"/>
       <use x="50" xlink:href="#SimHei-35"/>
      </g>
     </g>
    </g>
    <g id="ytick_3">
     <g id="line2d_8">
      <g>
       <use style="stroke:#000000;stroke-width:0.8;" x="57.6" xlink:href="#m33f9ce7203" y="242.568"/>
      </g>
     </g>
     <g id="text_9">
      <!-- 50 -->
      <g transform="translate(40.6 246.0055)scale(0.1 -0.1)">
       <use xlink:href="#SimHei-35"/>
       <use x="50" xlink:href="#SimHei-30"/>
      </g>
     </g>
    </g>
    <g id="ytick_4">
     <g id="line2d_9">
      <g>
       <use style="stroke:#000000;stroke-width:0.8;" x="57.6" xlink:href="#m33f9ce7203" y="211.068"/>
      </g>
     </g>
     <g id="text_10">
      <!-- 75 -->
      <g transform="translate(40.6 214.5055)scale(0.1 -0.1)">
       <defs>
        <path d="M 850 150 
Q 1300 2050 2425 3925 
L 275 3925 
L 275 4375 
L 2950 4375 
L 2950 3950 
Q 1775 2050 1400 150 
L 850 150 
z
" id="SimHei-37" transform="scale(0.015625)"/>
       </defs>
       <use xlink:href="#SimHei-37"/>
       <use x="50" xlink:href="#SimHei-35"/>
      </g>
     </g>
    </g>
    <g id="ytick_5">
     <g id="line2d_10">
      <g>
       <use style="stroke:#000000;stroke-width:0.8;" x="57.6" xlink:href="#m33f9ce7203" y="179.568"/>
      </g>
     </g>
     <g id="text_11">
      <!-- 100 -->
      <g transform="translate(35.6 183.0055)scale(0.1 -0.1)">
       <defs>
        <path d="M 1400 3600 
Q 1075 3275 575 2975 
L 575 3450 
Q 1200 3875 1600 4450 
L 1900 4450 
L 1900 150 
L 1400 150 
L 1400 3600 
z
" id="SimHei-31" transform="scale(0.015625)"/>
       </defs>
       <use xlink:href="#SimHei-31"/>
       <use x="50" xlink:href="#SimHei-30"/>
       <use x="100" xlink:href="#SimHei-30"/>
      </g>
     </g>
    </g>
    <g id="ytick_6">
     <g id="line2d_11">
      <g>
       <use style="stroke:#000000;stroke-width:0.8;" x="57.6" xlink:href="#m33f9ce7203" y="148.068"/>
      </g>
     </g>
     <g id="text_12">
      <!-- 125 -->
      <g transform="translate(35.6 151.5055)scale(0.1 -0.1)">
       <use xlink:href="#SimHei-31"/>
       <use x="50" xlink:href="#SimHei-32"/>
       <use x="100" xlink:href="#SimHei-35"/>
      </g>
     </g>
    </g>
    <g id="ytick_7">
     <g id="line2d_12">
      <g>
       <use style="stroke:#000000;stroke-width:0.8;" x="57.6" xlink:href="#m33f9ce7203" y="116.568"/>
      </g>
     </g>
     <g id="text_13">
      <!-- 150 -->
      <g transform="translate(35.6 120.0055)scale(0.1 -0.1)">
       <use xlink:href="#SimHei-31"/>
       <use x="50" xlink:href="#SimHei-35"/>
       <use x="100" xlink:href="#SimHei-30"/>
      </g>
     </g>
    </g>
    <g id="ytick_8">
     <g id="line2d_13">
      <g>
       <use style="stroke:#000000;stroke-width:0.8;" x="57.6" xlink:href="#m33f9ce7203" y="85.068"/>
      </g>
     </g>
     <g id="text_14">
      <!-- 175 -->
      <g transform="translate(35.6 88.5055)scale(0.1 -0.1)">
       <use xlink:href="#SimHei-31"/>
       <use x="50" xlink:href="#SimHei-37"/>
       <use x="100" xlink:href="#SimHei-35"/>
      </g>
     </g>
    </g>
    <g id="ytick_9">
     <g id="line2d_14">
      <g>
       <use style="stroke:#000000;stroke-width:0.8;" x="57.6" xlink:href="#m33f9ce7203" y="53.568"/>
      </g>
     </g>
     <g id="text_15">
      <!-- 200 -->
      <g transform="translate(35.6 57.0055)scale(0.1 -0.1)">
       <use xlink:href="#SimHei-32"/>
       <use x="50" xlink:href="#SimHei-30"/>
       <use x="100" xlink:href="#SimHei-30"/>
      </g>
     </g>
    </g>
    <g id="text_16">
     <!-- steps -->
     <g transform="translate(30.35 187.028)rotate(-90)scale(0.1 -0.1)">
      <defs>
       <path d="M 2750 200 
Q 2625 150 2462 112 
Q 2300 75 2025 75 
Q 1575 75 1300 325 
Q 1025 575 1025 1025 
L 1025 2525 
L 175 2525 
L 175 2925 
L 1025 2925 
L 1025 3900 
L 1525 3900 
L 1525 2925 
L 2550 2925 
L 2550 2525 
L 1525 2525 
L 1525 1000 
Q 1525 800 1625 662 
Q 1725 525 2000 525 
Q 2275 525 2450 575 
Q 2625 625 2750 700 
L 2750 200 
z
" id="SimHei-74" transform="scale(0.015625)"/>
      </defs>
      <use xlink:href="#SimHei-73"/>
      <use x="50" xlink:href="#SimHei-74"/>
      <use x="100" xlink:href="#SimHei-65"/>
      <use x="150" xlink:href="#SimHei-70"/>
      <use x="200" xlink:href="#SimHei-73"/>
     </g>
    </g>
   </g>
   <g id="line2d_15">
    <path clip-path="url(#pe5ec39fae5)" d="M 73.832727 294.228 
L 74.185613 294.228 
L 74.538498 292.968 
L 75.244269 292.968 
L 75.95004 295.488 
L 76.302925 295.488 
L 76.65581 292.968 
L 77.008696 294.228 
L 77.361581 292.968 
L 77.714466 292.968 
L 78.067352 291.708 
L 78.420237 294.228 
L 79.831779 294.228 
L 80.184664 292.968 
L 80.537549 294.228 
L 80.890435 292.968 
L 81.24332 292.968 
L 81.596206 294.228 
L 81.949091 292.968 
L 82.301976 294.228 
L 82.654862 294.228 
L 83.007747 292.968 
L 83.360632 294.228 
L 83.713518 292.968 
L 84.066403 294.228 
L 84.772174 294.228 
L 85.125059 292.968 
L 85.477945 294.228 
L 86.183715 294.228 
L 86.536601 292.968 
L 87.595257 292.968 
L 87.948142 294.228 
L 88.301028 292.968 
L 88.653913 294.228 
L 89.006798 294.228 
L 89.359684 292.968 
L 89.712569 294.228 
L 90.065455 294.228 
L 90.41834 292.968 
L 91.476996 292.968 
L 91.829881 294.228 
L 92.182767 292.968 
L 92.535652 294.228 
L 92.888538 292.968 
L 93.241423 295.488 
L 94.300079 291.708 
L 95.00585 294.228 
L 95.358735 292.968 
L 95.711621 292.968 
L 96.064506 294.228 
L 96.417391 292.968 
L 96.770277 292.968 
L 97.123162 294.228 
L 97.476047 292.968 
L 97.828933 294.228 
L 99.240474 294.228 
L 99.59336 292.968 
L 99.946245 292.968 
L 100.29913 294.228 
L 100.652016 292.968 
L 101.004901 295.488 
L 101.357787 295.488 
L 101.710672 294.228 
L 102.063557 294.228 
L 102.416443 292.968 
L 102.769328 295.488 
L 103.122213 292.968 
L 103.475099 294.228 
L 103.827984 292.968 
L 104.533755 295.488 
L 104.88664 292.968 
L 105.239526 291.708 
L 105.592411 291.708 
L 106.298182 294.228 
L 106.651067 294.228 
L 107.003953 295.488 
L 107.356838 295.488 
L 107.709723 292.968 
L 108.062609 294.228 
L 108.415494 294.228 
L 108.768379 292.968 
L 110.179921 292.968 
L 110.532806 294.228 
L 111.591462 294.228 
L 111.944348 292.968 
L 112.297233 295.488 
L 112.650119 292.968 
L 113.003004 294.228 
L 114.06166 294.228 
L 114.414545 292.968 
L 115.473202 292.968 
L 115.826087 294.228 
L 116.531858 294.228 
L 116.884743 292.968 
L 117.237628 295.488 
L 117.943399 292.968 
L 119.354941 292.968 
L 119.707826 294.228 
L 120.413597 294.228 
L 120.766482 295.488 
L 121.119368 291.708 
L 121.472253 295.488 
L 121.825138 292.968 
L 122.178024 292.968 
L 122.530909 294.228 
L 123.23668 294.228 
L 123.589565 292.968 
L 123.942451 292.968 
L 124.295336 294.228 
L 124.648221 292.968 
L 125.001107 294.228 
L 125.353992 292.968 
L 125.706877 294.228 
L 126.059763 292.968 
L 126.412648 292.968 
L 126.765534 291.708 
L 127.118419 292.968 
L 127.471304 292.968 
L 127.82419 294.228 
L 128.177075 294.228 
L 128.52996 292.968 
L 129.235731 292.968 
L 129.588617 294.228 
L 129.941502 291.708 
L 130.294387 294.228 
L 130.647273 291.708 
L 131.000158 292.968 
L 131.353043 295.488 
L 132.058814 292.968 
L 132.764585 292.968 
L 133.11747 295.488 
L 133.470356 294.228 
L 134.176126 294.228 
L 134.529012 292.968 
L 134.881897 292.968 
L 135.234783 295.488 
L 135.587668 292.968 
L 135.940553 292.968 
L 136.293439 294.228 
L 136.646324 292.968 
L 136.999209 292.968 
L 137.70498 295.488 
L 138.057866 295.488 
L 138.410751 292.968 
L 138.763636 294.228 
L 139.116522 291.708 
L 139.469407 292.968 
L 139.822292 292.968 
L 140.175178 294.228 
L 140.528063 292.968 
L 140.880949 294.228 
L 141.233834 292.968 
L 142.29249 292.968 
L 142.645375 294.228 
L 142.998261 292.968 
L 143.351146 294.228 
L 143.704032 294.228 
L 144.056917 292.968 
L 144.409802 294.228 
L 144.762688 292.968 
L 145.115573 295.488 
L 145.468458 292.968 
L 146.174229 295.488 
L 146.527115 291.708 
L 146.88 294.228 
L 147.232885 294.228 
L 147.585771 292.968 
L 147.938656 294.228 
L 148.291542 292.968 
L 148.644427 294.228 
L 148.997312 292.968 
L 149.350198 294.228 
L 150.408854 294.228 
L 150.761739 292.968 
L 151.114625 294.228 
L 151.46751 292.968 
L 151.820395 292.968 
L 152.173281 294.228 
L 153.231937 294.228 
L 153.584822 292.968 
L 153.937708 292.968 
L 154.290593 291.708 
L 154.643478 292.968 
L 154.996364 295.488 
L 155.349249 294.228 
L 155.702134 295.488 
L 156.05502 292.968 
L 156.760791 295.488 
L 157.113676 292.968 
L 158.172332 292.968 
L 158.525217 291.708 
L 158.878103 292.968 
L 159.230988 292.968 
L 159.583874 294.228 
L 159.936759 292.968 
L 160.64253 295.488 
L 160.995415 292.968 
L 162.054071 292.968 
L 162.406957 294.228 
L 162.759842 294.228 
L 163.112727 292.968 
L 163.465613 294.228 
L 164.171383 294.228 
L 164.524269 292.968 
L 165.23004 292.968 
L 165.582925 295.488 
L 166.288696 292.968 
L 166.641581 294.228 
L 166.994466 292.968 
L 167.700237 295.488 
L 168.053123 292.968 
L 168.406008 292.968 
L 168.758893 294.228 
L 169.111779 291.708 
L 169.464664 294.228 
L 169.817549 294.228 
L 170.170435 295.488 
L 170.52332 292.968 
L 171.229091 292.968 
L 171.581976 294.228 
L 171.934862 292.968 
L 172.287747 294.228 
L 172.640632 294.228 
L 172.993518 292.968 
L 173.699289 292.968 
L 174.052174 294.228 
L 175.463715 294.228 
L 175.816601 292.968 
L 176.169486 294.228 
L 176.522372 292.968 
L 176.875257 292.968 
L 177.581028 295.488 
L 177.933913 292.968 
L 178.286798 294.228 
L 178.639684 294.228 
L 178.992569 292.968 
L 179.345455 292.968 
L 179.69834 294.228 
L 180.051225 292.968 
L 180.404111 294.228 
L 180.756996 294.228 
L 181.109881 295.488 
L 181.462767 295.488 
L 181.815652 292.968 
L 182.168538 294.228 
L 182.521423 292.968 
L 182.874308 292.968 
L 183.580079 295.488 
L 183.932964 292.968 
L 184.28585 292.968 
L 184.638735 294.228 
L 185.344506 294.228 
L 185.697391 292.968 
L 186.403162 292.968 
L 186.756047 294.228 
L 187.108933 292.968 
L 187.814704 295.488 
L 188.167589 292.968 
L 188.520474 294.228 
L 188.87336 292.968 
L 189.57913 292.968 
L 189.932016 294.228 
L 190.284901 294.228 
L 190.637787 295.488 
L 190.990672 292.968 
L 191.343557 292.968 
L 191.696443 295.488 
L 192.049328 294.228 
L 192.402213 295.488 
L 192.755099 292.968 
L 193.107984 292.968 
L 193.46087 294.228 
L 194.872411 294.228 
L 195.225296 292.968 
L 195.578182 294.228 
L 195.931067 292.968 
L 196.283953 294.228 
L 196.636838 292.968 
L 196.989723 294.228 
L 197.695494 294.228 
L 198.048379 292.968 
L 198.401265 292.968 
L 198.75415 294.228 
L 199.812806 294.228 
L 200.165692 292.968 
L 201.224348 292.968 
L 201.577233 295.488 
L 201.930119 292.968 
L 203.34166 292.968 
L 203.694545 295.488 
L 204.047431 292.968 
L 204.400316 294.228 
L 204.753202 292.968 
L 205.106087 295.488 
L 205.458972 295.488 
L 205.811858 292.968 
L 206.517628 295.488 
L 206.870514 294.228 
L 207.223399 291.708 
L 207.576285 292.968 
L 207.92917 292.968 
L 208.282055 294.228 
L 208.634941 292.968 
L 208.987826 294.228 
L 209.340711 292.968 
L 210.046482 292.968 
L 210.399368 295.488 
L 210.752253 294.228 
L 211.105138 294.228 
L 211.458024 292.968 
L 211.810909 292.968 
L 212.163794 295.488 
L 212.51668 292.968 
L 213.222451 295.488 
L 213.575336 292.968 
L 213.928221 294.228 
L 214.281107 292.968 
L 214.633992 294.228 
L 214.986877 292.968 
L 215.339763 294.228 
L 215.692648 294.228 
L 216.045534 292.968 
L 216.398419 295.488 
L 216.751304 292.968 
L 218.515731 292.968 
L 218.868617 294.228 
L 219.221502 294.228 
L 219.574387 295.488 
L 219.927273 295.488 
L 220.280158 292.968 
L 220.985929 292.968 
L 221.338814 294.228 
L 221.6917 292.968 
L 222.044585 294.228 
L 222.750356 294.228 
L 223.103241 292.968 
L 223.456126 292.968 
L 223.809012 295.488 
L 224.161897 294.228 
L 224.514783 295.488 
L 224.867668 292.968 
L 225.926324 292.968 
L 226.279209 294.228 
L 226.632095 291.708 
L 227.337866 294.228 
L 227.690751 292.968 
L 228.749407 292.968 
L 229.102292 294.228 
L 229.455178 292.968 
L 229.808063 294.228 
L 230.160949 292.968 
L 230.513834 292.968 
L 230.866719 291.708 
L 231.219605 294.228 
L 231.57249 292.968 
L 231.925375 294.228 
L 232.631146 294.228 
L 232.984032 292.968 
L 233.336917 292.968 
L 233.689802 295.488 
L 234.042688 292.968 
L 234.395573 295.488 
L 235.101344 292.968 
L 235.454229 294.228 
L 235.807115 292.968 
L 236.16 294.228 
L 236.512885 294.228 
L 236.865771 295.488 
L 237.218656 291.708 
L 237.571542 292.968 
L 237.924427 295.488 
L 238.630198 292.968 
L 239.688854 292.968 
L 240.041739 294.228 
L 240.394625 292.968 
L 241.100395 292.968 
L 241.453281 294.228 
L 242.864822 294.228 
L 243.217708 295.488 
L 243.570593 292.968 
L 243.923478 295.488 
L 244.276364 294.228 
L 244.629249 294.228 
L 244.982134 295.488 
L 245.33502 291.708 
L 245.687905 294.228 
L 246.040791 295.488 
L 246.393676 292.968 
L 246.746561 295.488 
L 247.099447 295.488 
L 247.805217 292.968 
L 248.158103 294.228 
L 249.92253 294.228 
L 250.275415 295.488 
L 250.6283 292.968 
L 251.334071 295.488 
L 251.686957 294.228 
L 252.039842 294.228 
L 252.392727 292.968 
L 252.745613 294.228 
L 253.098498 292.968 
L 253.451383 294.228 
L 253.804269 292.968 
L 254.157154 294.228 
L 254.51004 292.968 
L 254.862925 294.228 
L 255.21581 292.968 
L 255.921581 292.968 
L 256.274466 294.228 
L 256.627352 292.968 
L 256.980237 294.228 
L 257.333123 294.228 
L 257.686008 292.968 
L 258.038893 292.968 
L 258.391779 294.228 
L 258.744664 292.968 
L 259.450435 292.968 
L 259.80332 294.228 
L 260.156206 292.968 
L 260.509091 292.968 
L 260.861976 295.488 
L 261.214862 294.228 
L 261.567747 295.488 
L 261.920632 290.448 
L 262.273518 294.228 
L 262.979289 294.228 
L 263.332174 292.968 
L 263.685059 294.228 
L 264.39083 294.228 
L 264.743715 292.968 
L 265.096601 294.228 
L 265.449486 294.228 
L 265.802372 292.968 
L 266.155257 294.228 
L 266.508142 292.968 
L 267.213913 292.968 
L 267.566798 294.228 
L 267.919684 294.228 
L 268.272569 292.968 
L 270.036996 292.968 
L 270.389881 294.228 
L 270.742767 294.228 
L 271.095652 292.968 
L 271.448538 294.228 
L 271.801423 294.228 
L 272.154308 292.968 
L 272.507194 295.488 
L 273.212964 292.968 
L 273.918735 295.488 
L 274.271621 294.228 
L 274.977391 294.228 
L 275.330277 292.968 
L 276.036047 295.488 
L 276.388933 294.228 
L 276.741818 295.488 
L 277.447589 292.968 
L 278.506245 292.968 
L 278.85913 294.228 
L 279.212016 292.968 
L 279.564901 294.228 
L 279.917787 292.968 
L 280.623557 295.488 
L 280.976443 294.228 
L 281.329328 289.188 
L 281.682213 294.228 
L 282.035099 295.488 
L 282.387984 292.968 
L 282.74087 292.968 
L 283.093755 294.228 
L 283.44664 292.968 
L 283.799526 292.968 
L 284.152411 294.228 
L 285.211067 294.228 
L 285.563953 292.968 
L 285.916838 292.968 
L 286.269723 295.488 
L 286.622609 292.968 
L 287.681265 292.968 
L 288.03415 294.228 
L 288.387036 294.228 
L 288.739921 292.968 
L 289.445692 295.488 
L 290.151462 292.968 
L 290.504348 294.228 
L 291.210119 294.228 
L 291.563004 292.968 
L 292.268775 292.968 
L 292.62166 294.228 
L 292.974545 292.968 
L 293.327431 294.228 
L 293.680316 292.968 
L 294.386087 295.488 
L 294.738972 292.968 
L 295.091858 292.968 
L 295.444743 294.228 
L 295.797628 294.228 
L 296.503399 291.708 
L 297.20917 294.228 
L 297.562055 292.968 
L 297.914941 294.228 
L 298.267826 294.228 
L 298.620711 295.488 
L 298.973597 292.968 
L 299.326482 294.228 
L 299.679368 294.228 
L 300.032253 292.968 
L 300.385138 294.228 
L 300.738024 294.228 
L 301.090909 295.488 
L 301.443794 294.228 
L 302.149565 294.228 
L 302.502451 292.968 
L 303.208221 292.968 
L 303.561107 294.228 
L 304.266877 294.228 
L 304.619763 292.968 
L 304.972648 294.228 
L 305.325534 292.968 
L 305.678419 294.228 
L 306.031304 294.228 
L 306.38419 292.968 
L 306.737075 294.228 
L 307.08996 294.228 
L 307.442846 292.968 
L 307.795731 292.968 
L 308.148617 295.488 
L 308.501502 292.968 
L 308.854387 292.968 
L 309.207273 294.228 
L 309.560158 292.968 
L 309.913043 295.488 
L 310.618814 292.968 
L 310.9717 292.968 
L 311.324585 294.228 
L 312.030356 294.228 
L 312.383241 292.968 
L 312.736126 294.228 
L 314.147668 294.228 
L 314.500553 292.968 
L 315.559209 292.968 
L 315.912095 295.488 
L 316.617866 292.968 
L 316.970751 294.228 
L 317.676522 294.228 
L 318.029407 295.488 
L 318.382292 292.968 
L 318.735178 294.228 
L 319.088063 294.228 
L 319.440949 292.968 
L 319.793834 294.228 
L 320.146719 292.968 
L 320.499605 292.968 
L 321.205375 295.488 
L 321.558261 294.228 
L 322.264032 294.228 
L 322.616917 292.968 
L 323.322688 292.968 
L 323.675573 295.488 
L 324.028458 294.228 
L 324.381344 294.228 
L 324.734229 292.968 
L 325.44 292.968 
L 325.792885 295.488 
L 326.145771 292.968 
L 326.498656 295.488 
L 326.851542 291.708 
L 327.204427 295.488 
L 327.910198 292.968 
L 328.263083 294.228 
L 328.615968 294.228 
L 328.968854 292.968 
L 329.321739 294.228 
L 330.02751 294.228 
L 330.380395 292.968 
L 330.733281 292.968 
L 331.086166 294.228 
L 331.791937 294.228 
L 332.144822 292.968 
L 332.850593 292.968 
L 333.203478 295.488 
L 333.556364 294.228 
L 334.262134 294.228 
L 334.61502 295.488 
L 334.967905 292.968 
L 335.320791 294.228 
L 335.673676 294.228 
L 336.026561 292.968 
L 336.379447 295.488 
L 336.732332 295.488 
L 337.438103 292.968 
L 337.790988 292.968 
L 338.143874 295.488 
L 338.496759 292.968 
L 339.20253 292.968 
L 339.555415 295.488 
L 339.9083 295.488 
L 340.261186 292.968 
L 340.966957 292.968 
L 341.319842 294.228 
L 341.672727 294.228 
L 342.025613 295.488 
L 342.378498 294.228 
L 342.731383 294.228 
L 343.084269 292.968 
L 343.437154 294.228 
L 343.79004 292.968 
L 344.142925 292.968 
L 344.49581 295.488 
L 344.848696 295.488 
L 345.201581 292.968 
L 346.966008 292.968 
L 347.318893 295.488 
L 347.671779 292.968 
L 349.436206 292.968 
L 349.789091 294.228 
L 350.141976 294.228 
L 350.494862 292.968 
L 350.847747 294.228 
L 351.553518 291.708 
L 352.259289 294.228 
L 352.612174 294.228 
L 352.965059 292.968 
L 353.317945 294.228 
L 354.023715 294.228 
L 354.376601 295.488 
L 354.729486 295.488 
L 355.082372 294.228 
L 355.435257 295.488 
L 355.788142 294.228 
L 356.141028 294.228 
L 356.493913 295.488 
L 356.846798 292.968 
L 357.552569 295.488 
L 357.905455 291.708 
L 358.25834 294.228 
L 358.611225 295.488 
L 358.964111 292.968 
L 359.316996 294.228 
L 359.669881 292.968 
L 360.022767 294.228 
L 360.375652 294.228 
L 360.728538 295.488 
L 361.081423 292.968 
L 361.434308 294.228 
L 361.787194 292.968 
L 362.140079 294.228 
L 362.492964 294.228 
L 362.84585 291.708 
L 363.551621 294.228 
L 363.904506 292.968 
L 364.257391 295.488 
L 364.963162 292.968 
L 365.316047 294.228 
L 365.668933 294.228 
L 366.021818 292.968 
L 366.374704 294.228 
L 366.727589 292.968 
L 367.43336 295.488 
L 367.786245 292.968 
L 368.13913 292.968 
L 368.844901 295.488 
L 369.550672 292.968 
L 369.903557 294.228 
L 370.256443 292.968 
L 370.609328 292.968 
L 370.962213 294.228 
L 371.315099 292.968 
L 372.373755 292.968 
L 372.72664 294.228 
L 374.491067 294.228 
L 374.843953 295.488 
L 375.196838 294.228 
L 375.549723 294.228 
L 375.902609 292.968 
L 376.255494 294.228 
L 376.608379 292.968 
L 376.961265 292.968 
L 377.31415 294.228 
L 377.667036 291.708 
L 378.019921 294.228 
L 378.372806 292.968 
L 378.725692 292.968 
L 379.078577 295.488 
L 379.431462 292.968 
L 380.137233 292.968 
L 380.490119 294.228 
L 380.843004 292.968 
L 381.195889 294.228 
L 381.548775 292.968 
L 381.90166 295.488 
L 382.607431 292.968 
L 382.960316 294.228 
L 383.313202 294.228 
L 383.666087 295.488 
L 384.018972 294.228 
L 384.371858 291.708 
L 385.077628 294.228 
L 386.136285 294.228 
L 386.48917 295.488 
L 386.842055 292.968 
L 387.194941 295.488 
L 387.547826 294.228 
L 387.900711 158.148 
L 388.253597 226.188 
L 388.606482 208.548 
L 388.959368 107.748 
L 389.312253 155.628 
L 389.665138 158.148 
L 390.018024 159.408 
L 390.370909 154.368 
L 390.723794 155.628 
L 391.07668 161.928 
L 391.429565 172.008 
L 392.135336 164.448 
L 392.488221 148.068 
L 392.841107 153.108 
L 393.193992 141.768 
L 393.546877 145.548 
L 393.899763 161.928 
L 394.252648 159.408 
L 394.605534 169.488 
L 394.958419 175.788 
L 395.311304 178.308 
L 395.66419 175.788 
L 396.017075 172.008 
L 396.36996 160.668 
L 396.722846 131.688 
L 397.075731 53.568 
L 398.487273 53.568 
L 398.487273 53.568 
" style="fill:none;stroke:#1f77b4;stroke-linecap:square;stroke-width:1.5;"/>
   </g>
   <g id="patch_3">
    <path d="M 57.6 307.584 
L 57.6 41.472 
" style="fill:none;stroke:#000000;stroke-linecap:square;stroke-linejoin:miter;stroke-width:0.8;"/>
   </g>
   <g id="patch_4">
    <path d="M 414.72 307.584 
L 414.72 41.472 
" style="fill:none;stroke:#000000;stroke-linecap:square;stroke-linejoin:miter;stroke-width:0.8;"/>
   </g>
   <g id="patch_5">
    <path d="M 57.6 307.584 
L 414.72 307.584 
" style="fill:none;stroke:#000000;stroke-linecap:square;stroke-linejoin:miter;stroke-width:0.8;"/>
   </g>
   <g id="patch_6">
    <path d="M 57.6 41.472 
L 414.72 41.472 
" style="fill:none;stroke:#000000;stroke-linecap:square;stroke-linejoin:miter;stroke-width:0.8;"/>
   </g>
   <g id="text_17">
    <!-- steps-episodes -->
    <g transform="translate(194.16 35.472)scale(0.12 -0.12)">
     <defs>
      <path d="M 2975 2125 
L 125 2125 
L 125 2525 
L 2975 2525 
L 2975 2125 
z
" id="SimHei-2d" transform="scale(0.015625)"/>
     </defs>
     <use xlink:href="#SimHei-73"/>
     <use x="50" xlink:href="#SimHei-74"/>
     <use x="100" xlink:href="#SimHei-65"/>
     <use x="150" xlink:href="#SimHei-70"/>
     <use x="200" xlink:href="#SimHei-73"/>
     <use x="250" xlink:href="#SimHei-2d"/>
     <use x="300" xlink:href="#SimHei-65"/>
     <use x="350" xlink:href="#SimHei-70"/>
     <use x="400" xlink:href="#SimHei-69"/>
     <use x="450" xlink:href="#SimHei-73"/>
     <use x="500" xlink:href="#SimHei-6f"/>
     <use x="550" xlink:href="#SimHei-64"/>
     <use x="600" xlink:href="#SimHei-65"/>
     <use x="650" xlink:href="#SimHei-73"/>
    </g>
   </g>
   <g id="legend_1">
    <g id="patch_7">
     <path d="M 403.72 54.472 
L 407.72 54.472 
Q 409.72 54.472 409.72 52.472 
L 409.72 48.472 
Q 409.72 46.472 407.72 46.472 
L 403.72 46.472 
Q 401.72 46.472 401.72 48.472 
L 401.72 52.472 
Q 401.72 54.472 403.72 54.472 
z
" style="fill:#ffffff;opacity:0.8;stroke:#cccccc;stroke-linejoin:miter;"/>
    </g>
   </g>
  </g>
 </g>
 <defs>
  <clipPath id="pe5ec39fae5">
   <rect height="266.112" width="357.12" x="57.6" y="41.472"/>
  </clipPath>
 </defs>
</svg>
